<?xml version="1.0" encoding="UTF-8"?>
<svg width="64" height="48" viewBox="0 0 48 48" fill="none" xmlns="http://www.w3.org/2000/svg">
  <!-- Main outer hexagon -->
  <path d="M24 4L8 13V35L24 44L40 35V13L24 4Z" fill="url(#paint0_linear)"/>
  
  <!-- Inner decorative hexagons -->
  <path d="M24 12L16 16V28L24 32L32 28V16L24 12Z" fill="url(#paint1_linear)"/>
  <path d="M24 16L20 18V26L24 28L28 26V18L24 16Z" fill="white" fill-opacity="0.2"/>
  
  <!-- Blockchain nodes -->
  <circle cx="24" cy="8" r="3" fill="url(#paint2_linear)"/>
  <circle cx="36" cy="24" r="3" fill="url(#paint3_linear)"/>
  <circle cx="24" cy="40" r="3" fill="url(#paint4_linear)"/>
  <circle cx="12" cy="24" r="3" fill="url(#paint5_linear)"/>
  
  <!-- Connecting lines -->
  <path d="M24 11L34 22.5L24 37L14 22.5L24 11Z" stroke="white" stroke-width="1.5" stroke-opacity="0.6"/>
  
  <!-- Dollar symbol for crowdfunding -->
  <path d="M26 22H22M24 20V28M22 26H26" stroke="white" stroke-width="2" stroke-linecap="round"/>
  
  <!-- Glowing effects -->
  <circle cx="24" cy="24" r="12" fill="url(#paint6_linear)" fill-opacity="0.2"/>
  
  <defs>
    <linearGradient id="paint0_linear" x1="8" y1="4" x2="40" y2="44" gradientUnits="userSpaceOnUse">
      <stop stop-color="#FF69B4"/>
      <stop offset="1" stop-color="#9370DB"/>
    </linearGradient>
    
    <linearGradient id="paint1_linear" x1="16" y1="12" x2="32" y2="32" gradientUnits="userSpaceOnUse">
      <stop stop-color="#FF69B4"/>
      <stop offset="0.5" stop-color="#DA70D6"/>
      <stop offset="1" stop-color="#9370DB"/>
    </linearGradient>
    
    <linearGradient id="paint2_linear" x1="21" y1="5" x2="27" y2="11" gradientUnits="userSpaceOnUse">
      <stop stop-color="#FF69B4"/>
      <stop offset="1" stop-color="#9370DB"/>
    </linearGradient>
    
    <linearGradient id="paint3_linear" x1="33" y1="21" x2="39" y2="27" gradientUnits="userSpaceOnUse">
      <stop stop-color="#FF69B4"/>
      <stop offset="1" stop-color="#9370DB"/>
    </linearGradient>
    
    <linearGradient id="paint4_linear" x1="21" y1="37" x2="27" y2="43" gradientUnits="userSpaceOnUse">
      <stop stop-color="#FF69B4"/>
      <stop offset="1" stop-color="#9370DB"/>
    </linearGradient>
    
    <linearGradient id="paint5_linear" x1="9" y1="21" x2="15" y2="27" gradientUnits="userSpaceOnUse">
      <stop stop-color="#FF69B4"/>
      <stop offset="1" stop-color="#9370DB"/>
    </linearGradient>
    
    <linearGradient id="paint6_linear" x1="12" y1="12" x2="36" y2="36" gradientUnits="userSpaceOnUse">
      <stop stop-color="#FF69B4"/>
      <stop offset="1" stop-color="#9370DB"/>
    </linearGradient>
  </defs>
</svg>